<svg width="1888" height="310" viewBox="0 0 1888 310" fill="none" xmlns="http://www.w3.org/2000/svg">
<path d="M0.211426 309.4H205.311V122.7L192.311 94.8H164.411L182.811 130.4V261.4H61.6114V289.8H0.211426V309.4Z" fill="#FF7D24"/>
<path d="M49.0116 76.3999C77.2116 62.6999 106.312 62.9 136.012 77.8C139.412 79.3334 141.545 78.1667 142.412 74.3C141.212 46.9 107.012 27.7 94.9116 2C79.9116 27.5 47.3116 42.6 44.4116 73.8C45.2783 76.7334 46.8116 77.5999 49.0116 76.3999Z" fill="#FF7D24"/>
<path d="M30.0116 256.1C33.9116 256.1 37.1116 259.2 37.1116 263.1C37.1116 267 33.9116 270.2 30.0116 270.2C26.1116 270.2 22.9116 267 22.9116 263.1C22.9116 259.2 26.1116 256.1 30.0116 256.1Z" fill="#FF7D24" stroke="#FF7D24" stroke-width="0.9" stroke-miterlimit="100"/>
<path d="M15.1112 273.2C19.0112 273.2 22.2112 276.4 22.2112 280.3C22.2112 284.2 19.0112 287.3 15.1112 287.3C11.2112 287.3 8.01123 284.2 8.01123 280.3C8.01123 276.4 11.2112 273.2 15.1112 273.2Z" fill="#FF7D24" stroke="#FF7D24" stroke-width="0.9" stroke-miterlimit="100"/>
<path d="M44.5116 273.2C48.4116 273.2 51.6116 276.4 51.6116 280.3C51.6116 284.2 48.4116 287.3 44.5116 287.3C40.6116 287.3 37.4116 284.2 37.4116 280.3C37.4116 276.4 40.6116 273.2 44.5116 273.2Z" fill="#FF7D24" stroke="#FF7D24" stroke-width="0.9" stroke-miterlimit="100"/>
<path fill-rule="evenodd" clip-rule="evenodd" d="M165.011 252.5H134.711L133.511 231.2C110.111 252.5 83.8114 257.8 49.1114 245.4C11.9114 222.6 0.511423 191.9 0.0114229 162.6C-1.18858 92.4998 92.4115 33.9998 161.411 108.4L170.711 126.8L35.5114 126.2C-2.58858 189.9 67.4114 270 122.211 209.2L96.7114 208V186.7L165.011 188.5V252.5ZM52.4116 110.4L132.912 109.9C117.612 93.3 66.4116 89.9 52.4116 110.4Z" fill="#FF7D24"/>
<path d="M201.612 2C222.012 2 238.712 18.1999 238.712 38.0999C238.712 57.9999 222.012 74.2 201.612 74.2C181.112 74.2 164.412 57.9999 164.412 38.0999C164.412 18.1999 181.112 2 201.612 2Z" stroke="#102694" stroke-width="3.3" stroke-miterlimit="100"/>
<path d="M184.411 48.8V31H177.211V27.3H196.411V31H189.311V48.8H184.411ZM199.511 48.8V27.3H206.811L211.211 42L215.511 27.3H222.911V48.8H218.311V31.8999L213.511 48.8H208.811L204.011 31.8999V48.8H199.511Z" fill="#102694"/>
<path d="M348.149 292.484C336.018 292.484 325.671 291.125 317.108 288.408C308.545 285.691 301.195 281.473 295.058 275.753C287.922 268.889 282.427 261.167 278.574 252.587C274.72 244.007 272.865 234.927 273.008 225.346C273.008 217.91 274.221 211.332 276.647 205.613C279.073 199.893 282.641 195.102 287.351 191.241C291.347 187.952 296.128 185.593 301.694 184.163C307.26 182.59 314.539 181.875 323.53 182.018H359.71L366.774 207.114H327.384C318.678 207.114 312.469 208.687 308.759 211.833C305.048 214.979 303.193 220.198 303.193 227.491C303.193 238.359 306.475 247.368 313.04 254.518C319.463 261.668 328.026 265.743 338.73 266.744V241.433H326.741V216.981H368.059V292.484H348.149ZM454.975 182.018H473.171L480.022 206.899H456.901C445.912 206.899 437.135 208.901 430.57 212.905C424.005 216.909 419.081 223.273 415.798 231.996H444.913V211.404H475.526V292.484H444.913V257.521H412.801C413.086 263.527 414.228 269.461 416.226 275.324C418.082 281.044 420.865 286.764 424.575 292.484L400.171 307.928C394.176 298.919 389.681 289.838 386.683 280.686C383.544 271.535 381.974 262.24 381.974 252.802C381.974 242.363 383.758 232.496 387.326 223.201C391.036 213.906 396.174 206.041 402.739 199.607C408.876 193.744 416.226 189.311 424.79 186.308C433.353 183.305 443.414 181.875 454.975 182.018ZM526.477 223.201V292.484H495.864V182.018H524.978L557.304 222.129V182.018H587.275V292.484H557.304V261.382L526.477 223.201ZM683.397 206.685H637.798V223.845H679.329L671.836 248.726H637.798V267.602H687.036L678.901 292.484H607.399V182.018H676.332L683.397 206.685ZM764.961 207.329H734.99C732.991 207.329 731.493 207.614 730.494 208.186C729.638 208.758 729.21 209.688 729.21 210.975C729.21 211.833 729.424 212.619 729.852 213.334C730.28 214.049 730.994 214.979 731.993 216.123L756.826 243.15C760.536 247.296 763.32 251.372 765.175 255.376C767.03 259.237 767.958 263.241 767.958 267.388C767.958 271.392 767.102 275.11 765.389 278.542C763.534 281.973 761.036 284.833 757.896 287.121C755.184 289.123 751.759 290.553 747.62 291.411C743.481 292.269 737.13 292.698 728.567 292.698H702.45L694.957 267.173H727.925C729.78 267.173 731.136 266.816 731.993 266.101C732.992 265.529 733.42 264.528 733.277 263.098C733.42 262.526 733.277 261.882 732.849 261.167C732.421 260.309 731.85 259.451 731.136 258.593L703.948 229.207C701.094 226.061 698.953 222.629 697.526 218.911C695.956 215.193 695.171 211.475 695.171 207.758C695.171 204.755 695.671 201.895 696.67 199.178C697.526 196.461 698.81 193.958 700.523 191.67C703.235 188.238 706.731 185.807 711.013 184.377C715.437 182.804 721.859 182.018 730.28 182.018H757.896L764.961 207.329ZM811.202 182.018V216.766H841.601V182.018H872V292.698H841.601V242.291H811.202V269.533C811.202 276.254 811.344 281.401 811.63 284.976C811.773 288.408 812.129 290.982 812.7 292.698L786.583 309C784.442 305.997 782.872 301.779 781.873 296.345C781.017 290.911 780.588 282.617 780.588 271.463V182.018H811.202Z" fill="#102694"/>
<path fill-rule="evenodd" clip-rule="evenodd" d="M1017.68 206.671H972.357V223.833H1013.83L1006.35 248.932H972.357V267.811H1021.53L1013.4 292.696H942V182.215H1010.84L1017.68 206.671ZM1034.57 182H1064.93V265.451H1104.26L1096.35 292.482H1034.57V182ZM1190.85 206.671H1145.31V223.833H1186.78L1179.3 248.718H1145.31V267.597H1194.48L1186.36 292.696H1114.95V182H1184L1190.85 206.671ZM1269.73 292.696C1260.18 292.696 1251.77 291.481 1244.51 289.049C1237.24 286.618 1230.61 282.828 1224.62 277.679C1217.36 271.244 1211.65 263.449 1207.52 254.296C1203.53 245.285 1201.54 235.703 1201.54 225.549C1201.54 218.112 1202.75 211.533 1205.17 205.813C1207.59 200.092 1211.16 195.301 1215.86 191.44C1219.99 188.15 1224.84 185.79 1230.4 184.36C1235.81 182.787 1243.08 182 1252.2 182H1269.73L1277.22 207.314H1256.05C1247.36 207.314 1241.16 208.887 1237.45 212.034C1233.75 215.18 1231.89 220.4 1231.89 227.694C1231.89 239.994 1235.88 249.719 1243.86 256.87C1251.85 264.164 1262.75 267.811 1276.57 267.811H1278.93L1271.23 292.696H1269.73ZM1344.99 292.696H1314.63V207.743H1282.99L1289.83 182H1369.78L1376.63 207.743H1344.99V292.696ZM1454.02 245.286C1459 254.582 1464.21 263.02 1469.62 270.6C1475.04 278.323 1480.74 285.259 1486.72 291.409L1462.57 309C1454.02 299.704 1446.18 289.407 1439.05 278.108C1431.78 266.81 1424.94 254.224 1418.53 240.351C1427.65 234.631 1434.35 229.625 1438.62 225.334C1442.76 221.044 1444.82 217.254 1444.82 213.965C1444.82 211.82 1444.11 210.103 1442.69 208.816C1441.12 207.672 1438.91 207.1 1436.06 207.1H1382.18L1389.24 182.215H1442.26C1453.66 182.215 1462.5 184.646 1468.77 189.508C1475.04 194.514 1478.17 201.45 1478.17 210.317C1478.17 217.182 1476.18 223.475 1472.19 229.196C1468.2 235.06 1462.14 240.423 1454.02 245.286ZM1387.53 211.605H1418.1V292.696H1387.53V211.605ZM1494.42 182.215H1525.63V292.696H1494.42V182.215ZM1608.37 292.91C1598.68 292.91 1590.27 291.695 1583.14 289.264C1575.87 286.832 1569.25 283.042 1563.26 277.894C1555.99 271.458 1550.29 263.663 1546.16 254.51C1542.17 245.5 1540.17 235.918 1540.17 225.764C1540.17 218.327 1541.38 211.748 1543.81 206.027C1546.23 200.306 1549.79 195.515 1554.49 191.654C1558.63 188.364 1563.4 186.004 1568.82 184.574C1574.38 183.001 1581.72 182.215 1590.84 182.215H1608.37L1615.64 207.529H1594.69C1585.99 207.529 1579.79 209.102 1576.09 212.249C1572.38 215.395 1570.53 220.615 1570.53 227.909C1570.53 240.209 1574.52 249.934 1582.5 257.085C1590.48 264.378 1601.38 268.026 1615.21 268.026H1617.56L1609.87 292.91H1608.37ZM1698.37 182.215H1716.54L1723.6 207.314H1700.51C1689.39 207.314 1680.63 209.317 1674.21 213.321C1667.66 217.326 1662.74 223.69 1659.46 232.414H1688.32V211.82H1718.9V292.91H1688.32V257.943H1656.47C1656.76 263.95 1657.82 269.885 1659.68 275.748C1661.67 281.469 1664.45 287.19 1668.01 292.91L1643.86 308.357C1637.73 299.347 1633.17 290.265 1630.17 281.111C1627.18 271.958 1625.69 262.662 1625.69 253.223C1625.69 242.783 1627.47 232.915 1631.03 223.619C1634.59 214.322 1639.72 206.456 1646.42 200.021C1652.41 194.014 1659.75 189.58 1668.44 186.719C1676.99 183.716 1686.97 182.215 1698.37 182.215ZM1739.42 182.215H1769.78V265.88H1809.11L1801.42 292.91H1739.42V182.215ZM1885.01 207.529H1855.08C1853.08 207.529 1851.66 207.815 1850.8 208.387C1849.8 208.959 1849.3 209.889 1849.3 211.176C1849.3 211.891 1849.52 212.606 1849.95 213.321C1850.37 214.179 1851.09 215.109 1852.08 216.11L1876.88 243.14C1880.73 247.431 1883.51 251.507 1885.22 255.368C1887.07 259.373 1888 263.377 1888 267.382C1888 271.386 1887.14 275.105 1885.43 278.537C1883.72 282.113 1881.3 284.973 1878.17 287.118C1875.32 289.121 1871.82 290.551 1867.69 291.409C1863.56 292.267 1857.21 292.696 1848.66 292.696H1822.58L1815.1 267.167H1848.02C1849.87 267.167 1851.23 266.881 1852.08 266.309C1853.08 265.594 1853.58 264.522 1853.58 263.091C1853.58 262.662 1853.37 262.019 1852.94 261.161C1852.51 260.303 1851.94 259.516 1851.23 258.801L1824.08 229.196C1821.23 226.05 1819.09 222.689 1817.66 219.113C1816.24 215.395 1815.53 211.676 1815.53 207.958C1815.53 204.955 1815.95 202.094 1816.81 199.377C1817.66 196.66 1818.95 194.157 1820.66 191.868C1823.37 188.436 1826.93 185.933 1831.35 184.36C1835.62 182.93 1841.96 182.215 1850.37 182.215H1878.17L1885.01 207.529Z" fill="#FF7D24"/>
<path d="M893 95C911.604 95 927 109.738 927 127.893C927 146.048 911.604 161 893 161C874.182 161 859 146.048 859 127.893C859 109.738 874.182 95 893 95Z" stroke="#102694" stroke-width="4.2" stroke-miterlimit="100"/>
<path d="M876.462 138V121.478H870V118H887.662V121.478H880.985V138H876.462ZM890.462 138V118H897.138L901.231 131.696L905.108 118H912V138H907.692V122.348L903.385 138H899.077L894.554 122.348V138H890.462Z" fill="#102694"/>
</svg>
